<svg xmlns="http://www.w3.org/2000/svg" xmlns:xlink="http://www.w3.org/1999/xlink" version="1.1" width="256" height="256" viewBox="0 0 256 256" xml:space="preserve">
<g style="stroke: none; stroke-width: 0; stroke-dasharray: none; stroke-linecap: butt; stroke-linejoin: miter; stroke-miterlimit: 10; fill: none; fill-rule: nonzero; opacity: 1;" transform="translate(1.4065934065934016 1.4065934065934016) scale(2.81 2.81)">
	<path d="M 43.602 49.768 c 0.376 -0.713 0.157 -1.578 -0.45 -2.109 c -4.415 -3.863 -7.38 -9.198 -8.001 -14.61 c -0.389 -3.386 0.224 -6.337 1.684 -8.09 c 2.172 -2.526 5.081 -4.001 8.672 -4.17 c 5.745 -0.271 11.741 2.665 15.429 5.808 c 0.623 0.531 1.505 0.595 2.163 0.108 c 3.074 -2.275 5.538 -4.572 6.137 -6.936 c 0.156 -0.616 -0.186 -1.283 -0.687 -1.674 C 49.885 3.529 33.818 5.873 26.625 14.388 c -0.026 0.031 -0.052 0.062 -0.079 0.093 c -4.785 5.745 -6.497 13.371 -4.821 21.473 c 1.596 7.703 6.261 15.264 13.185 21.483 c 0.593 0.532 1.513 0.643 2.166 0.188 C 39.634 55.841 41.923 52.955 43.602 49.768 z" style="stroke: none; stroke-width: 1; stroke-dasharray: none; stroke-linecap: butt; stroke-linejoin: miter; stroke-miterlimit: 10; fill: rgb(65,235,255); fill-rule: nonzero; opacity: 1;" transform=" matrix(1 0 0 1 0 0) " stroke-linecap="round"/>
	<path d="M 26.958 63.142 c 0.64 -0.49 1.53 -0.419 2.155 0.091 c 4.546 3.707 10.302 5.738 15.742 5.446 c 3.404 -0.182 6.21 -1.28 7.694 -3.013 c 2.127 -2.564 3.095 -5.678 2.662 -9.247 c -0.694 -5.709 -4.59 -11.131 -8.305 -14.241 c -0.628 -0.526 -0.838 -1.384 -0.468 -2.115 c 1.729 -3.411 5.718 -8.483 7.948 -9.468 c 0.581 -0.257 1.296 -0.031 1.765 0.397 c 17.482 15.968 15.72 34.458 8.528 42.973 c -0.026 0.031 -0.052 0.062 -0.079 0.093 c -4.864 5.678 -12.097 8.641 -20.365 8.343 c -7.862 -0.286 -16.096 -3.621 -23.385 -9.408 c -0.624 -0.495 -0.887 -1.384 -0.547 -2.104 C 21.634 68.07 24.097 65.33 26.958 63.142 z" style="stroke: none; stroke-width: 1; stroke-dasharray: none; stroke-linecap: butt; stroke-linejoin: miter; stroke-miterlimit: 10; fill: rgb(65,235,255); fill-rule: nonzero; opacity: 1;" transform=" matrix(1 0 0 1 0 0) " stroke-linecap="round"/>
	<path d="M 20.28 54.101 c 0.612 5.537 -4.456 11.379 -9.914 10.258 c -4.358 -0.895 -9.413 -4.955 -10.258 -9.914 c -0.936 -5.492 4.345 -10.084 9.914 -10.258 C 15.104 44.029 19.657 48.462 20.28 54.101 z" style="stroke: none; stroke-width: 1; stroke-dasharray: none; stroke-linecap: butt; stroke-linejoin: miter; stroke-miterlimit: 10; fill: rgb(65,235,255); fill-rule: nonzero; opacity: 1;" transform=" matrix(1 0 0 1 0 0) " stroke-linecap="round"/>
	<path d="M 86.819 43.296 c -3.804 4.07 -11.538 4.027 -14.241 -0.844 c -2.158 -3.89 -2.369 -10.371 0.844 -14.241 c 3.559 -4.286 10.483 -3.269 14.241 0.844 C 91.093 32.809 90.693 39.151 86.819 43.296 z" style="stroke: none; stroke-width: 1; stroke-dasharray: none; stroke-linecap: butt; stroke-linejoin: miter; stroke-miterlimit: 10; fill: rgb(65,235,255); fill-rule: nonzero; opacity: 1;" transform=" matrix(1 0 0 1 0 0) " stroke-linecap="round"/>
</g>
</svg>